<svg width="120" height="24" xmlns="http://www.w3.org/2000/svg" fill="none" class="logo">
 <defs>
  <clipPath id="a">
   <path id="svg_1" d="m0,0l276,0l0,44l-276,0l0,-44z" fill="#fff"/>
  </clipPath>
 </defs>
 <g>
  <title>Layer 1</title>
  <g stroke="null" id="svg_2" clip-path="url(#a)" fill="#FFF">
   <path stroke="null" fill="#333333" id="svg_3" d="m8.15733,13.82283a1.38288,1.38288 0 0 1 -1.20949,0.65549l-1.1672,0l-4.72801,-11.78196l3.34513,0l3.92027,9.74782a1.41671,1.41671 0 0 1 -0.15224,1.37865l-0.00423,0l-0.00423,0zm6.76215,-11.12647l3.3705,0l-6.21238,15.46964l-4.81682,0l-1.2983,-3.25632l4.07252,0l4.88025,-12.21332l0.00423,0zm7.87861,2.69809l-1.56473,0c-0.27911,0 -0.53708,-0.07189 -0.78236,-0.21145a1.52244,1.52244 0 0 1 -0.77813,-1.35751l0,-1.12914l3.12522,0l0,2.69809zm-3.12945,12.77155l0,-12.33173l3.12945,0l0,12.34019l-3.12945,0l0,-0.00423l0,-0.00423zm15.11018,-4.34317a1.37442,1.37442 0 0 1 -1.22641,0.65549l-1.16297,0l-3.48046,-8.64405l-3.31976,0l0,-3.13791l2.77422,0a3.8653,3.8653 0 0 1 3.65385,2.47819l2.90954,7.26963a1.42517,1.42517 0 0 1 -0.14379,1.37865l-0.00423,0zm-7.62487,-7.54452c0.4229,0 0.79082,0.14801 1.09954,0.4525a1.48015,1.48015 0 0 1 0.46519,1.09954l0,10.33988l-3.12522,0l0,-11.89192l1.56473,0l-0.00423,0zm16.41271,-3.58195l2.77845,0l0,3.13791l-3.31976,0l-4.95637,12.34019l-4.19939,0l-1.2983,-3.25209l3.45085,0l3.92027,-9.74359a3.86107,3.86107 0 0 1 3.6327,-2.48242l-0.00846,0zm-0.35101,5.12553c0,-0.4229 0.15647,-0.79082 0.46519,-1.09954a1.50552,1.50552 0 0 1 1.09954,-0.44827l1.56473,0l0,11.89192l-2.79959,0l-0.32986,-10.34411zm5.69645,1.15028l0,-3.14637l12.94071,0c0.67664,0 1.25601,0.24528 1.73811,0.73162a2.38515,2.38515 0 0 1 0.72739,1.74657l0,0.66395l-15.40198,0l-0.00423,0.00423zm0,3.64539l0.02537,0c0.07189,-0.61743 0.33832,-1.1376 0.80351,-1.55627c0.46519,-0.4229 1.0065,-0.63435 1.64085,-0.63435l7.83209,0a1.52244,1.52244 0 0 1 1.33213,0.78659c0.13956,0.24528 0.21145,0.50748 0.21145,0.78659l0,1.56895l-8.71595,0l0,1.459l9.15576,0l0,-4.59268a1.36173,1.36173 0 0 1 1.31944,-1.04033l1.80578,0l0,8.77938l-12.93648,0a2.36823,2.36823 0 0 1 -1.73811,-0.73162a2.38515,2.38515 0 0 1 -0.72739,-1.74657l0,-3.07447l-0.00846,0l0,-0.00423zm31.03655,-9.92121c0.66818,0 1.25178,0.24528 1.73389,0.73162a2.38515,2.38515 0 0 1 0.73162,1.74657l0,4.35586c0,0.67664 -0.24105,1.26024 -0.72739,1.74657a2.36823,2.36823 0 0 1 -1.73811,0.72739l-9.37567,0l0,-1.56473c0,-0.43136 0.15224,-0.80351 0.44827,-1.108c0.29603,-0.31295 0.66818,-0.46519 1.09108,-0.46519l7.17659,0l0,-3.03219l-12.27675,0l0,-3.13791l12.94071,0l-0.00423,0zm-11.38021,3.58195c0.4229,0 0.79082,0.14801 1.09954,0.4525a1.48015,1.48015 0 0 1 0.46519,1.09954l0,10.33988l-3.12522,0l0,-11.89192l1.56473,0l-0.00423,0zm15.68955,2.69387l0,-3.14637l12.93648,0c0.67664,0 1.25601,0.24528 1.73811,0.73162a2.38515,2.38515 0 0 1 0.72739,1.74657l0,0.66395l-15.40198,0l0,0.00423zm0,3.64539l0.02114,0c0.07189,-0.61743 0.33832,-1.1376 0.80351,-1.55627c0.46519,-0.4229 1.0065,-0.63435 1.64085,-0.63435l7.83209,0a1.52244,1.52244 0 0 1 1.33213,0.78659c0.13956,0.24528 0.21145,0.50748 0.21145,0.78659l0,1.56895l-8.71172,0l0,1.459l9.15153,0l0,-4.59268a1.36173,1.36173 0 0 1 1.32367,-1.04033l1.80578,0l0,8.77938l-12.94071,0a2.36823,2.36823 0 0 1 -1.73811,-0.73162a2.38515,2.38515 0 0 1 -0.72739,-1.74657l0,-3.07447l-0.00423,0l0,-0.00423zm23.59353,-0.57514a3.73843,3.73843 0 0 1 0,3.89067l-0.68087,1.1968l-0.35524,-0.61743l-6.13626,-10.6782l3.61156,0l3.56927,6.20816l-0.00846,0zm-2.57545,9.26149l8.88933,-15.46964l3.61156,0l-8.88511,15.46964l-3.61156,0l-0.00423,0z"/>
  </g>
 </g>
</svg>